<svg width="25" height="25" viewBox="0 0 25 25" fill="none" xmlns="http://www.w3.org/2000/svg">
<path d="M17.9045 4.71875C19.135 4.71875 20.1545 5.73828 20.1545 6.96875V18.2188C20.1545 19.4844 19.135 20.4688 17.9045 20.4688H6.65454C5.38892 20.4688 4.40454 19.4844 4.40454 18.2188V6.96875C4.40454 5.73828 5.38892 4.71875 6.65454 4.71875H17.9045ZM16.3225 11.0469C16.7092 10.6602 16.7092 10.0625 16.3225 9.67578C15.9358 9.28906 15.3381 9.28906 14.9514 9.67578L11.1545 13.4727L9.57251 11.9258C9.18579 11.5391 8.58813 11.5391 8.20142 11.9258C7.8147 12.3125 7.8147 12.9102 8.20142 13.2969L10.4514 15.5469C10.8381 15.9336 11.4358 15.9336 11.8225 15.5469L16.3225 11.0469Z" fill="#0B5E86"/>
</svg>
