<svg width="20" height="20" viewBox="0 0 20 20" fill="none" xmlns="http://www.w3.org/2000/svg">
<path id="image 48 (Traced)" fill-rule="evenodd" clip-rule="evenodd" d="M3.82412 0.0559682C3.76317 0.0879372 3.67573 0.149565 3.62985 0.192935C3.44101 0.371373 3.11059 1.72424 3.02692 2.66144C2.95729 3.44158 3.02895 4.42271 3.19825 5.00628C3.22758 5.10732 3.25155 5.20133 3.25155 5.21515C3.25155 5.22898 3.10239 5.25167 2.92012 5.26553C2.0319 5.33316 1.24863 5.7239 0.717283 6.3644C0.17541 7.01752 -0.152617 8.20406 0.0712025 8.70122C0.151215 8.87891 0.262589 8.96648 0.635128 9.1445C1.2309 9.42921 1.92119 9.50086 2.60322 9.34876C2.78503 9.30822 2.93882 9.27506 2.94491 9.27506C2.95104 9.27506 2.95603 9.69565 2.95603 10.2097V11.1444L3.12503 10.9943C3.70595 10.4786 4.88758 9.83664 5.87429 9.50086C8.21935 8.70275 11.0966 8.66426 13.5024 9.39888C14.5996 9.73392 15.9214 10.4224 16.5656 10.9943L16.7346 11.1444V10.2051V9.26575L16.8362 9.28896C16.8921 9.30174 17.0459 9.3368 17.1779 9.36683C17.6983 9.48528 18.4137 9.41598 18.9326 9.19685C19.5921 8.91834 19.7159 8.74735 19.6757 8.17064C19.5645 6.57465 18.3763 5.38782 16.767 5.26527L16.4321 5.23978L16.4532 5.14291C16.7125 3.95182 16.7446 3.31162 16.6009 2.19569C16.488 1.318 16.2191 0.344769 16.0427 0.175051C15.8405 -0.0195203 15.5873 -0.053799 15.354 0.0817896C15.1704 0.188576 15.1226 0.282583 14.8293 1.11515C14.5274 1.9718 14.2128 2.63245 13.9812 2.89591C13.8829 3.00773 13.6888 3.16344 13.5328 3.25555L13.2578 3.41792L12.8317 3.21363C12.3159 2.96634 11.6912 2.75645 11.1198 2.63852C10.7462 2.5614 10.5925 2.55085 9.84533 2.55085C9.09815 2.55085 8.94448 2.5614 8.5709 2.63852C7.99952 2.75645 7.37475 2.96634 6.85907 3.21359L6.43308 3.41785L6.18141 3.26982C5.8802 3.09265 5.80033 3.02174 5.60688 2.75965C5.39739 2.47577 5.14236 1.91281 4.86191 1.11515C4.72859 0.736035 4.58811 0.367163 4.54969 0.295437C4.41427 0.0426665 4.06755 -0.0717585 3.82412 0.0559682ZM7.49311 6.09598C7.6986 6.25411 7.72129 6.35743 7.72129 7.13568C7.72129 7.7809 7.71552 7.84074 7.64061 7.97521C7.54911 8.13942 7.3251 8.26905 7.13283 8.26905C6.96047 8.26905 6.74611 8.13543 6.65439 7.97082C6.58213 7.84115 6.57615 7.77483 6.57615 7.10512C6.57615 6.4144 6.58014 6.37379 6.65956 6.25321C6.85006 5.96408 7.22876 5.89261 7.49311 6.09598ZM12.8758 6.08793C13.1002 6.26052 13.1145 6.32229 13.1145 7.11637C13.1145 7.92957 13.0842 8.03971 12.8189 8.19013C12.5495 8.34282 12.1996 8.24352 12.0479 7.97134C11.9685 7.8289 11.9655 7.79149 11.9765 7.07971C11.9894 6.23346 12 6.20012 12.304 6.04046C12.5077 5.93349 12.6954 5.94906 12.8758 6.08793ZM9.27033 10.064C8.61671 10.0927 7.94075 10.1741 7.44837 10.2835C4.77514 10.8775 2.92371 12.2422 2.34615 14.0443C2.21073 14.4668 2.17601 15.2137 2.26998 15.6816C2.80362 18.3381 6.46776 20.2377 10.5533 19.9759C12.7784 19.8333 14.6689 19.1465 15.978 18.0049C17.4923 16.6844 17.8965 14.9128 17.0433 13.3364C16.5496 12.4241 15.6035 11.5874 14.4307 11.0259C12.9082 10.2969 11.2045 9.97942 9.27033 10.064ZM7.58841 14.5048C7.85312 14.7084 7.9215 15.0474 7.75734 15.342C7.55698 15.7016 7.11299 15.7779 6.79442 15.5075C6.46743 15.23 6.51811 14.6811 6.89087 14.4627C7.09689 14.342 7.40065 14.3603 7.58841 14.5048ZM12.7804 14.4533C13.1478 14.6424 13.2301 15.1407 12.9463 15.4576C12.5585 15.8904 11.85 15.6031 11.85 15.0131C11.85 14.5324 12.3498 14.2317 12.7804 14.4533Z" fill="#53A9DF"/>
</svg>
