<svg width="32" height="32" viewBox="0 0 32 32" fill="none" xmlns="http://www.w3.org/2000/svg">
<path d="M16 20.5625C17.1172 20.5625 18.0625 21.5078 18.0625 22.625C18.0625 23.7852 17.1172 24.6875 16 24.6875C14.8398 24.6875 13.9375 23.7852 13.9375 22.625C13.9375 21.5078 14.8398 20.5625 16 20.5625ZM16 13.6875C17.1172 13.6875 18.0625 14.6328 18.0625 15.75C18.0625 16.9102 17.1172 17.8125 16 17.8125C14.8398 17.8125 13.9375 16.9102 13.9375 15.75C13.9375 14.6328 14.8398 13.6875 16 13.6875ZM16 10.9375C14.8398 10.9375 13.9375 10.0352 13.9375 8.875C13.9375 7.75781 14.8398 6.8125 16 6.8125C17.1172 6.8125 18.0625 7.75781 18.0625 8.875C18.0625 10.0352 17.1172 10.9375 16 10.9375Z" fill="#323F4B"/>
</svg>
