<svg width="18" height="15" viewBox="0 0 18 15" fill="none" xmlns="http://www.w3.org/2000/svg">
<path d="M17.5 7.3125V8.1875C17.5 8.43359 17.2812 8.625 17.0625 8.625H13.6445L12.1406 11.6328C11.9766 11.9609 11.6484 12.1523 11.2656 12.0977C10.9102 12.0703 10.6094 11.8242 10.5273 11.4688L8.83203 5.34375L6.97266 14.0664C6.89062 14.4492 6.53516 14.75 6.15234 14.75H6.125C5.71484 14.75 5.38672 14.5039 5.27734 14.1211L3.69141 8.625H0.4375C0.191406 8.625 0 8.43359 0 8.21484V7.3125C0 7.09375 0.191406 6.90234 0.4375 6.90234H4.375C4.75781 6.90234 5.08594 7.17578 5.19531 7.55859L5.98828 10.293L7.875 1.46094C7.95703 1.05078 8.3125 0.777344 8.72266 0.777344C9.10547 0.75 9.48828 1.02344 9.57031 1.40625L11.5938 8.81641L12.332 7.39453C12.4688 7.06641 12.7695 6.875 13.125 6.875H17.0625C17.2812 6.875 17.5 7.09375 17.5 7.3125Z" fill="#D9A25E"/>
</svg>
