<svg width="17" height="20" viewBox="0 0 17 20" fill="none" xmlns="http://www.w3.org/2000/svg">
<path id="image 46 (Traced)" fill-rule="evenodd" clip-rule="evenodd" d="M14.0554 0.0959875C13.3472 0.468558 12.7013 1.16132 12.3468 1.92862C12.0729 2.52127 11.9399 3.33076 12.0156 3.94332C12.0656 4.34786 12.1412 4.66467 12.2569 4.95442C12.3352 5.15074 12.3357 5.16123 12.271 5.2965L12.2043 5.43608L12.1122 5.11299C11.8189 4.0851 11.1122 3.19164 10.2211 2.7223C9.96416 2.58695 9.93174 2.58284 9.76131 2.66369C9.66123 2.7112 9.60836 2.78414 9.49634 3.02915C9.27425 3.51499 9.20348 3.8394 9.18173 4.47086C9.16699 4.89908 9.17706 5.09749 9.22586 5.33835C9.41473 6.27043 9.93565 7.13359 10.6423 7.68541C10.816 7.82103 10.9582 7.94065 10.9582 7.95117C10.9582 8.0289 9.92414 9.78788 9.89061 9.76716C9.87739 9.75899 9.85576 9.66009 9.84249 9.54743C9.80536 9.23134 9.64002 8.7024 9.46031 8.32481C9.16965 7.71407 8.64375 7.10318 8.07216 6.7124C7.62866 6.40916 7.44815 6.46059 7.1857 6.96494C6.58731 8.11469 6.59195 9.57316 7.19771 10.7577C7.41113 11.175 7.65515 11.5063 8.00412 11.8524C8.28919 12.1352 8.30071 12.1532 8.24807 12.2335C8.07847 12.4924 6.69933 14.1702 6.67564 14.1465C6.67063 14.1415 6.68252 14.0269 6.70206 13.8918C6.81335 13.1218 6.63231 12.0781 6.25891 11.3365C6.05366 10.9289 5.77615 10.536 5.45918 10.2043C4.96335 9.68525 4.77281 9.67039 4.42817 10.1237C3.36843 11.5177 3.19145 13.3511 3.96324 14.941C4.13565 15.2962 4.51328 15.858 4.66087 15.9789C4.69591 16.0076 4.72453 16.0503 4.72446 16.0739C4.72442 16.0975 4.58333 16.2385 4.41088 16.3871C3.14831 17.476 1.97545 18.2818 0.390484 19.149C0.0824162 19.3177 0.00502841 19.4014 0.000201181 19.5713C-0.00743876 19.8403 0.203667 20.0434 0.437541 19.992C0.562896 19.9645 1.19815 19.6314 1.72181 19.3187C2.66145 18.7576 3.84989 17.908 4.6725 17.2091C4.91219 17.0056 5.16545 16.7905 5.23527 16.7313L5.36222 16.6235L5.58503 16.7744C6.26088 17.2319 6.98915 17.4578 7.89838 17.492C8.74603 17.5238 9.38805 17.3828 10.1344 17.001C10.5658 16.7803 10.8631 16.5664 11.2554 16.1946C11.7851 15.6927 11.7814 15.5165 11.2329 15.1192C10.7377 14.7606 10.2037 14.5125 9.5708 14.3471C9.18443 14.2462 8.27866 14.2043 7.90165 14.27C7.75907 14.2948 7.6379 14.31 7.63235 14.3037C7.6268 14.2975 7.79279 14.0871 8.00123 13.8362C8.20964 13.5853 8.51885 13.1976 8.68829 12.9746L8.99644 12.5691L9.16957 12.6557C10.0285 13.0855 11.2036 13.1502 12.2125 12.8233C12.5577 12.7115 13.1345 12.4091 13.4352 12.1824C13.8785 11.8482 14.4271 11.2051 14.5365 10.8913C14.568 10.8007 14.5619 10.749 14.506 10.6346C14.446 10.5117 14.3793 10.4631 14.0356 10.2917C13.0035 9.77708 11.7338 9.72326 10.6822 10.1496C10.6377 10.1676 10.6897 10.0511 10.8374 9.8019C10.9595 9.59574 11.2015 9.17387 11.3751 8.86439C11.5559 8.54207 11.7096 8.30888 11.7349 8.31861C12.1574 8.48073 12.9457 8.59118 13.4096 8.55325C14.036 8.50205 14.7597 8.24632 15.2958 7.88663C15.8947 7.4848 16.6216 6.57922 16.6216 6.23481C16.6216 6.01774 16.5368 5.91975 16.2237 5.77508C15.6994 5.53285 15.3912 5.47409 14.6451 5.47409C13.9407 5.47409 13.617 5.52931 13.1539 5.7286C13.0529 5.77201 12.9615 5.79873 12.9508 5.78793C12.94 5.77717 12.968 5.69359 13.013 5.60222C13.075 5.47602 13.1561 5.39753 13.3499 5.27579C14.5395 4.52863 15.2651 3.01 15.1022 1.60847C15.0303 0.990279 14.7942 0.287024 14.598 0.106858C14.4465 -0.0322952 14.3047 -0.0351458 14.0554 0.0959875Z" fill="#9EC568"/>
</svg>
