<svg width="24" height="25" viewBox="0 0 24 25" fill="none" xmlns="http://www.w3.org/2000/svg">
<path d="M14.5 10.3281C14.5 11.7344 13.375 12.8281 12 12.8281C10.5938 12.8281 9.5 11.7344 9.5 10.3281C9.5 8.95312 10.5938 7.82812 12 7.82812C13.375 7.82812 14.5 8.95312 14.5 10.3281ZM12 9.32812C11.4375 9.32812 11 9.79688 11 10.3281C11 10.8906 11.4375 11.3281 12 11.3281C12.5312 11.3281 13 10.8906 13 10.3281C13 9.79688 12.5312 9.32812 12 9.32812ZM18 10.3281C18 13.0781 14.3438 17.9219 12.7188 19.9531C12.3438 20.4219 11.625 20.4219 11.25 19.9531C9.625 17.9219 6 13.0781 6 10.3281C6 7.01562 8.65625 4.32812 12 4.32812C15.3125 4.32812 18 7.01562 18 10.3281ZM12 5.82812C9.5 5.82812 7.5 7.85938 7.5 10.3281C7.5 10.7344 7.625 11.3281 7.96875 12.1406C8.28125 12.8906 8.75 13.7656 9.28125 14.6406C10.1875 16.0781 11.2188 17.4531 12 18.4531C12.75 17.4531 13.7812 16.0781 14.6875 14.6406C15.2188 13.7656 15.6875 12.8906 16 12.1406C16.3438 11.3281 16.5 10.7344 16.5 10.3281C16.5 7.85938 14.4688 5.82812 12 5.82812Z" fill="#0B5E86"/>
</svg>
