<svg width="24" height="25" viewBox="0 0 24 25" fill="none" xmlns="http://www.w3.org/2000/svg">
<path d="M6.75 5.95312C6.94141 5.95312 7.16016 6.0625 7.26953 6.25391L8.36328 7.78516C8.44531 7.89453 8.5 8.00391 8.5 8.14062V9.45312H10.25V8.14062C10.25 8.00391 10.2773 7.89453 10.3594 7.78516L11.4531 6.25391C11.5625 6.0625 11.7812 5.95312 12 5.95312C12.1914 5.95312 12.4102 6.0625 12.5195 6.25391L13.6133 7.78516C13.6953 7.89453 13.75 8.00391 13.75 8.14062V9.45312H15.5V8.14062C15.5 8.00391 15.5273 7.89453 15.6094 7.78516L16.7031 6.25391C16.8125 6.0625 17.0312 5.95312 17.25 5.95312C17.4414 5.95312 17.6602 6.0625 17.7695 6.25391L18.8633 7.78516C18.9453 7.89453 19 8.00391 19 8.14062V17.3281C19 17.8203 18.5898 18.2031 18.125 18.2031H16.375C15.8828 18.2031 15.5 17.8203 15.5 17.3281V16.0156H13.75V17.3281C13.75 17.8203 13.3398 18.2031 12.875 18.2031H11.125C10.6328 18.2031 10.25 17.8203 10.25 17.3281V16.0156H8.5V17.3281C8.5 17.8203 8.08984 18.2031 7.625 18.2031H5.875C5.38281 18.2031 5 17.8203 5 17.3281V8.14062C5 8.00391 5.02734 7.89453 5.10938 7.78516L6.20312 6.25391C6.3125 6.0625 6.53125 5.95312 6.75 5.95312ZM13.75 14.7031H15.5V10.7656H13.75V14.7031ZM8.5 10.7656V14.7031H10.25V10.7656H8.5ZM6.3125 8.35938V16.8906H7.1875V8.35938L6.75 7.75781L6.3125 8.35938ZM11.5625 8.35938V16.8906H12.4375V8.35938L12 7.75781L11.5625 8.35938ZM17.6875 16.8906V8.35938L17.25 7.75781L16.8125 8.35938V16.8906H17.6875Z" fill="#0B5E86"/>
</svg>
