<svg width="32" height="32" viewBox="0 0 32 32" fill="none" xmlns="http://www.w3.org/2000/svg">
<path d="M6.375 24.6875H14.8828L14.668 25.5898C14.582 25.9766 14.582 26.4062 14.7109 26.75H6.375C4.82812 26.75 3.625 25.5469 3.625 24V7.5C3.625 5.99609 4.82812 4.75 6.375 4.75H13.4648C14.1953 4.75 14.8828 5.05078 15.3984 5.56641L19.3086 9.47656C19.8242 9.99219 20.125 10.6797 20.125 11.4102V17.6406L18.0625 19.7031V11.625H14.625C13.8516 11.625 13.25 11.0234 13.25 10.25V6.8125H6.375C5.98828 6.8125 5.6875 7.15625 5.6875 7.5V24C5.6875 24.3867 5.98828 24.6875 6.375 24.6875ZM27.8594 15.5352C28.5039 16.1797 28.5039 17.2539 27.8594 17.9414L26.5703 19.2305L23.5195 16.1797L24.8086 14.8906C25.4531 14.2461 26.5703 14.2461 27.2148 14.8906L27.8594 15.5352ZM16.9883 22.668L22.5742 17.125L25.625 20.1758L20.0391 25.7188C19.8672 25.8906 19.6523 26.0195 19.4375 26.1055L16.8164 26.75C16.6016 26.793 16.3438 26.75 16.1719 26.5781C16 26.4062 15.957 26.1484 16 25.8906L16.6445 23.3125C16.6875 23.0977 16.8164 22.8828 16.9883 22.668Z" fill="#0B5E86"/>
</svg>
