<svg width="25" height="25" viewBox="0 0 25 25" fill="none" xmlns="http://www.w3.org/2000/svg">
<path d="M17.9045 4.71875C19.135 4.71875 20.1545 5.73828 20.1545 6.96875V18.2188C20.1545 19.4844 19.135 20.4688 17.9045 20.4688H6.65454C5.38892 20.4688 4.40454 19.4844 4.40454 18.2188V6.96875C4.40454 5.73828 5.38892 4.71875 6.65454 4.71875H17.9045ZM17.9045 6.40625H6.65454C6.33813 6.40625 6.09204 6.6875 6.09204 6.96875V18.2188C6.09204 18.5352 6.33813 18.7812 6.65454 18.7812H17.9045C18.1858 18.7812 18.467 18.5352 18.467 18.2188V6.96875C18.467 6.6875 18.1858 6.40625 17.9045 6.40625Z" fill="#323F4B"/>
</svg>
