<svg width="26" height="20" viewBox="0 0 26 20" fill="none" xmlns="http://www.w3.org/2000/svg">
<path id="image 47 (Traced)" fill-rule="evenodd" clip-rule="evenodd" d="M22.019 0.037257C21.47 0.168051 21.0361 0.767013 21.1084 1.29438C21.1223 1.39624 21.2065 1.64948 21.2954 1.85716C21.3842 2.06479 21.457 2.24311 21.457 2.25346C21.457 2.32173 21.2552 2.23787 20.8962 2.02045C20.3658 1.69916 20.1426 1.63417 19.5697 1.63417H19.1118L19.541 2.06525C19.8301 2.3555 19.9489 2.50338 19.9047 2.51801C19.8687 2.52991 19.4495 2.60765 18.9732 2.69078L18.1074 2.84185L9.72197 2.86464L1.33658 2.88742L1.07672 2.99242C0.71255 3.13958 0.3919 3.44286 0.210065 3.81223L0.0605406 4.11588L0.0478255 7.75131L0.0351562 11.3867H0.446587H0.858064L0.859067 7.86625C0.860024 4.54778 0.864854 4.33527 0.943786 4.16346C1.04405 3.94508 1.1449 3.84951 1.37773 3.75221C1.68995 3.62174 1.67837 3.566 1.67833 5.19883V6.66996L1.8691 8.00743L2.05986 9.34486L1.86149 10.5665L1.66315 11.7881L1.86331 14.618L2.06342 17.4479H2.5773H3.09113V15.0063V12.5647L3.4877 11.9978C3.73808 11.6399 3.89581 11.4522 3.9155 11.4886C3.94398 11.5412 5.50649 17.371 5.50649 17.4247C5.50649 17.4375 5.73207 17.4479 6.00779 17.4479C6.42109 17.4479 6.50909 17.436 6.50909 17.3802C6.50909 17.3429 6.33477 16.0017 6.12172 14.3999C5.90867 12.798 5.73435 11.4647 5.73435 11.4371C5.73435 11.4019 6.02861 11.3867 6.70984 11.3867H7.68532L7.80035 11.1904C7.95056 10.9342 8.25234 10.6591 8.53708 10.519L8.76494 10.4069L13.876 10.3948L18.987 10.3826L20.0457 8.45792C20.628 7.39936 21.1089 6.52778 21.1144 6.52103C21.1199 6.51433 21.5299 6.60151 22.0256 6.71472C22.8681 6.90717 22.9693 6.92061 23.5778 6.92061C24.1 6.92061 24.2859 6.93852 24.5177 7.01117C24.9045 7.13244 25.1743 7.12897 25.3801 7.00014C25.5531 6.89186 25.8293 6.60019 25.9165 6.43371C25.994 6.28583 25.9771 5.87176 25.887 5.70943C25.8442 5.63232 25.2799 4.79651 24.633 3.85211C23.7851 2.6144 23.418 2.11496 23.3179 2.06319C23.2415 2.02373 23.074 1.98608 22.9455 1.97961L22.7121 1.96781L22.5881 1.69843C22.5199 1.55032 22.463 1.36178 22.4618 1.27952C22.4588 1.07764 22.5654 0.836192 22.695 0.751382C22.7535 0.7131 23.1602 0.545348 23.5989 0.378643C24.0375 0.211937 24.4272 0.0576726 24.4648 0.0359344C24.5489 -0.0128284 22.2239 -0.0115514 22.019 0.037257ZM21.0468 10.1468V10.5476L19.9872 10.7639L18.9277 10.9802L14.0055 10.9784C10.9322 10.9773 9.02502 10.9933 8.92809 11.0211C8.66217 11.0974 8.43208 11.2911 8.30926 11.5421L8.19446 11.7768L8.20626 14.1224L8.21807 16.4681H8.51429H8.81051L8.8333 14.2056C8.85463 12.0877 8.86146 11.9372 8.94026 11.8501C9.03113 11.7498 9.26451 11.6508 9.30794 11.6943C9.32261 11.7089 9.3346 11.9175 9.33465 12.1577C9.33465 12.4851 9.39038 12.8967 9.55722 13.8017L9.77975 15.0091L9.54989 15.7579L9.32002 16.5067L9.60425 18.1736C9.76057 19.0904 9.89856 19.8764 9.91082 19.9202C9.92937 19.9864 9.98711 20 10.2491 20H10.5651L10.5621 19.8063C10.5604 19.6998 10.513 19.0692 10.4569 18.405L10.3547 17.1973L10.9178 16.3669C11.2274 15.9103 11.4952 15.5288 11.5128 15.5191C11.5602 15.4933 15.3681 16.0344 15.4014 16.0717C15.4171 16.0892 15.4746 16.9341 15.5293 17.9492C15.584 18.9644 15.6382 19.8411 15.6498 19.8975C15.6693 19.9918 15.696 20 15.9846 20H16.2983L16.3251 19.738C16.3398 19.5938 16.3951 18.7376 16.4479 17.8353C16.5007 16.933 16.547 16.1916 16.5509 16.1878C16.5547 16.1841 16.675 16.2014 16.8182 16.2263C16.9936 16.2567 17.0861 16.2962 17.1016 16.347C17.1143 16.3885 17.2899 17.1916 17.4918 18.1315C17.6937 19.0715 17.8701 19.8764 17.8837 19.9202C17.9041 19.9861 17.9633 20 18.2243 20C18.4951 20 18.5402 19.9886 18.5397 19.9202C18.5393 19.8764 18.4404 19.0677 18.3197 18.1233L18.1004 16.406L19.152 15.3648C20.9382 13.5965 21.0937 13.4542 21.3121 13.3889C21.4939 13.3345 21.5484 13.3412 22.0185 13.4758C22.4916 13.6112 22.577 13.6216 23.215 13.6208C23.8689 13.6199 23.9065 13.6149 23.9949 13.5173C24.1383 13.359 24.328 13.0074 24.328 12.8999C24.328 12.7953 22.8565 10.5554 22.6916 10.4089C22.6205 10.3459 22.5046 10.3143 22.2952 10.3009C22.0089 10.2827 21.9938 10.2755 21.8307 10.0787C21.6248 9.83034 21.4731 9.74613 21.2314 9.74613H21.0468V10.1468ZM11.5517 16.5132C11.4101 16.7261 11.2942 16.917 11.2942 16.9376C11.2942 16.9581 11.6192 17.6504 12.0163 18.4761L12.7383 19.9772L13.0645 19.9906C13.2438 19.9979 13.39 19.9877 13.3892 19.9678C13.3885 19.9479 13.1654 19.3086 12.8935 18.547L12.3991 17.1624L12.5989 16.7054C12.7088 16.4541 12.7935 16.2446 12.7871 16.2399C12.766 16.2244 12.0032 16.1262 11.9049 16.1263C11.8355 16.1263 11.7386 16.2324 11.5517 16.5132Z" fill="#7668C5"/>
</svg>
