<svg width="9" height="20" viewBox="0 0 9 20" fill="none" xmlns="http://www.w3.org/2000/svg">
<path id="image 44 (Traced)" fill-rule="evenodd" clip-rule="evenodd" d="M1.86308 0.046739C1.69526 0.106595 1.55269 0.247018 1.51234 0.39229C1.49443 0.456796 1.4797 0.706973 1.4796 0.948212C1.4794 1.40325 1.51326 1.54938 1.62925 1.5939C1.69899 1.62068 6.63409 1.62068 6.70382 1.5939C6.81981 1.54938 6.85368 1.40325 6.85348 0.948212C6.85338 0.706973 6.83818 0.45518 6.81971 0.388629C6.77899 0.24194 6.60375 0.0804762 6.43418 0.0333827C6.35291 0.0107923 5.55976 -0.000783303 4.15005 4.11646e-05C2.40222 0.0010635 1.96615 0.00996776 1.86308 0.046739ZM2.06355 2.72741C2.04999 3.28861 2.03077 3.51646 1.97512 3.77449C1.819 4.4985 1.58827 5.02843 0.99878 6.01704C0.346514 7.11087 0.1051 7.69499 0.0295304 8.36208C0.00338438 8.5931 -0.00456158 10.1898 0.00239531 13.833L0.0121876 18.9777L0.086142 19.159C0.241106 19.5391 0.547406 19.8288 0.914571 19.9425C1.08549 19.9954 1.34362 20 4.16654 20C6.96729 20 7.2486 19.9951 7.41484 19.9436C7.78481 19.8289 8.09098 19.5387 8.24908 19.1529L8.32089 18.9777L8.32975 13.8165C8.33961 8.06989 8.34466 8.22301 8.12336 7.5607C7.98369 7.14263 7.76908 6.72519 7.34504 6.04678C6.50906 4.7094 6.25726 3.91893 6.25624 2.62848L6.25575 2.01013H4.16828H2.08086L2.06355 2.72741ZM5.6712 3.04895C5.72287 4.10516 6.01229 4.99417 6.64019 6.02528L6.72552 6.16544H4.16588H1.60624L1.7428 5.92634C2.31 4.93329 2.61129 3.98921 2.65396 3.07115C2.66382 2.85943 2.67763 2.66749 2.68469 2.64463C2.69481 2.61182 3.00912 2.60486 4.17389 2.61166L5.65023 2.62023L5.6712 3.04895Z" fill="#D9A25E"/>
</svg>
