<svg width="32" height="33" viewBox="0 0 32 33" fill="none" xmlns="http://www.w3.org/2000/svg">
<path d="M15.25 19.0781V17.0781H13.25C12.8125 17.0781 12.5 16.7656 12.5 16.3281C12.5 15.9219 12.8125 15.5781 13.25 15.5781H15.25V13.5781C15.25 13.1719 15.5625 12.8281 16 12.8281C16.4062 12.8281 16.75 13.1719 16.75 13.5781V15.5781H18.75C19.1562 15.5781 19.5 15.9219 19.5 16.3281C19.5 16.7656 19.1562 17.0781 18.75 17.0781H16.75V19.0781C16.75 19.5156 16.4062 19.8281 16 19.8281C15.5625 19.8281 15.25 19.5156 15.25 19.0781ZM24 16.3281C24 20.7656 20.4062 24.3281 16 24.3281C11.5625 24.3281 8 20.7656 8 16.3281C8 11.9219 11.5625 8.32812 16 8.32812C20.4062 8.32812 24 11.9219 24 16.3281ZM16 9.82812C12.4062 9.82812 9.5 12.7656 9.5 16.3281C9.5 19.9219 12.4062 22.8281 16 22.8281C19.5625 22.8281 22.5 19.9219 22.5 16.3281C22.5 12.7656 19.5625 9.82812 16 9.82812Z" fill="#323F4B"/>
</svg>
