<svg width="32" height="33" viewBox="0 0 32 33" fill="none" xmlns="http://www.w3.org/2000/svg">
<path d="M23.6562 8.48438C23.9062 8.64062 24.0312 8.92188 23.9375 9.20312L21.9375 22.7031C21.9062 22.9219 21.7812 23.1406 21.5625 23.2344C21.4688 23.2969 21.3438 23.3594 21.2188 23.3594C21.0938 23.3594 21 23.3281 20.9062 23.2969L17.8438 21.9844L14.375 24.2344C14.25 24.2969 14.0938 24.3281 13.9688 24.3281C13.875 24.3281 13.75 24.2969 13.625 24.2656C13.375 24.1094 13.25 23.8594 13.25 23.5781V20.0469L8.4375 18.0469C8.1875 17.9219 8 17.6719 8 17.3906C7.96875 17.1094 8.125 16.8281 8.375 16.7031L22.875 8.45312C23.125 8.29688 23.4375 8.32812 23.6562 8.48438ZM19.5312 12.0781L10.4375 17.2344L13.6875 18.6094L19.5312 12.0781ZM14.7188 22.2031L16.1562 21.2969L14.7188 20.6719V22.2031ZM20.625 21.5156L22.125 11.4219L15.125 19.2031L20.625 21.5156Z" fill="#6C7782"/>
</svg>
